<?xml version="1.0" standalone="no"?>
<!DOCTYPE svg PUBLIC "-//W3C//DTD SVG 20010904//EN"
 "http://www.w3.org/TR/2001/REC-SVG-20010904/DTD/svg10.dtd">
<svg version="1.0" xmlns="http://www.w3.org/2000/svg"
 width="512.000000pt" height="512.000000pt" viewBox="0 0 512.000000 512.000000"
 preserveAspectRatio="xMidYMid meet">
<metadata>
Created by potrace 1.14, written by Peter Selinger 2001-2017
</metadata>
<g transform="translate(0.000000,512.000000) scale(0.100000,-0.100000)"
fill="#000000" stroke="none">
<path d="M2345 5107 c-104 -35 -161 -85 -207 -183 -23 -50 -36 -65 -56 -70
-177 -40 -347 -93 -465 -143 -26 -11 -49 -20 -52 -20 -19 -1 -260 -136 -355
-199 -150 -99 -233 -165 -354 -282 -269 -260 -475 -577 -603 -930 -37 -102
-97 -326 -107 -400 -7 -50 -13 -89 -22 -135 -3 -16 -8 -122 -11 -235 -4 -172
-2 -230 16 -365 43 -330 137 -616 297 -900 177 -313 373 -529 729 -803 23 -18
205 -128 262 -159 214 -116 544 -224 793 -258 25 -4 59 -8 75 -11 17 -2 114
-7 216 -9 560 -16 1089 154 1546 496 88 67 321 288 384 364 13 17 41 50 61 75
70 87 189 275 252 399 141 278 221 553 256 878 12 109 9 423 -5 523 -42 308
-109 529 -240 796 -291 591 -811 1039 -1449 1248 -74 24 -115 44 -138 66 -18
17 -62 45 -98 63 -57 28 -75 32 -158 34 -74 2 -98 6 -121 22 -15 11 -40 22
-56 25 -25 5 -42 15 -82 53 -7 6 -38 24 -69 39 -66 32 -175 42 -239 21z"/>
</g>
</svg>
